<svg xmlns="http://www.w3.org/2000/svg" viewBox="0 0 1200 800" role="img" aria-labelledby="title desc">
  <title id="title">Mazda 3 2020 thumbnail</title>
  <desc id="desc">Thumbnail illustration for the Mazda 3 2020 ownership pages.</desc>
  <rect width="1200" height="800" rx="72" fill="#f8eadf"/>
  <path d="M151 521c32-72 103-118 213-138l134-79c43-25 92-38 146-38h116c58 0 108 18 150 53l112 92c55 17 88 49 100 96l11 39H129l22-25z" fill="#9b3324"/>
  <path d="M429 361l92-53c33-19 73-28 120-28h72v118H340l89-37z" fill="#fff7f0" opacity=".88"/>
  <path d="M744 280h39c49 0 93 16 132 48l83 70H744V280z" fill="#fff7f0" opacity=".78"/>
  <path d="M164 516h922l-32 56H135l29-56z" fill="#130d0e"/>
  <circle cx="344" cy="565" r="78" fill="#111827"/>
  <circle cx="344" cy="565" r="35" fill="#e9eff0"/>
  <circle cx="878" cy="565" r="78" fill="#111827"/>
  <circle cx="878" cy="565" r="35" fill="#e9eff0"/>
</svg>
