<svg xmlns="http://www.w3.org/2000/svg" width="1200" height="800" viewBox="0 0 1200 800" fill="none">
  <rect width="1200" height="800" fill="#F4EFE7"/>
  <rect x="48" y="54" width="1104" height="692" rx="36" fill="url(#bg)"/>
  <path d="M230 504C230 455.399 269.399 416 318 416H739C791.65 416 839.178 447.642 859.445 496.234L882 550H230V504Z" fill="#D7DFE7"/>
  <path d="M360 416L431 306H694L753 416H360Z" fill="#EFF4F8"/>
  <rect x="449" y="329" width="198" height="72" rx="18" fill="#AEC0CF"/>
  <rect x="650" y="329" width="90" height="72" rx="18" fill="#C2CFD7"/>
  <circle cx="377" cy="550" r="76" fill="#111827"/>
  <circle cx="377" cy="550" r="38" fill="#CBD5E1"/>
  <circle cx="755" cy="550" r="76" fill="#111827"/>
  <circle cx="755" cy="550" r="38" fill="#CBD5E1"/>
  <text x="931" y="172" fill="#0F1720" font-family="Arial, sans-serif" font-size="48" font-weight="700">Honda Civic 2019</text>
  <path d="M932 215H1058" stroke="#FB923C" stroke-width="12" stroke-linecap="round"/>
  <text x="931" y="266" fill="#475569" font-family="Arial, sans-serif" font-size="26">Compact sedan hub page</text>
  <defs>
    <linearGradient id="bg" x1="109" y1="108" x2="1015" y2="703" gradientUnits="userSpaceOnUse">
      <stop stop-color="#FFFFFF"/>
      <stop offset="1" stop-color="#ECF1F5"/>
    </linearGradient>
  </defs>
</svg>
