<svg xmlns="http://www.w3.org/2000/svg" viewBox="0 0 1200 800" role="img" aria-labelledby="title desc">
  <title id="title">Lexus RX 2020 premium SUV illustration</title>
  <desc id="desc">Editorial illustration for the Lexus RX 2020 weekly car queue page.</desc>
  <defs>
    <linearGradient id="bg" x1="0" y1="0" x2="1" y2="1">
      <stop offset="0" stop-color="#f7f0e8"/>
      <stop offset="1" stop-color="#dde7e8"/>
    </linearGradient>
    <linearGradient id="body" x1="175" y1="245" x2="1075" y2="565" gradientUnits="userSpaceOnUse">
      <stop offset="0" stop-color="#171c26"/>
      <stop offset="1" stop-color="#68707a"/>
    </linearGradient>
  </defs>
  <rect width="1200" height="800" rx="72" fill="url(#bg)"/>
  <path d="M944 92c93 26 151 82 174 167 23 86 4 159-58 219-62 61-145 81-249 61-104-21-165-78-184-172-18-94 10-167 84-221 59-43 136-61 233-54z" fill="#ffffff" opacity=".35"/>
  <path d="M177 515c23-86 92-139 207-159l128-82c44-28 97-42 159-42h130c64 0 116 23 156 69l80 92c50 18 81 53 94 105l12 48H145l32-31z" fill="url(#body)"/>
  <path d="M433 340l94-60c33-21 75-32 125-32h67v139H351l82-47z" fill="#f7faf8" opacity=".9"/>
  <path d="M750 248h62c50 0 91 20 123 59l65 80H750V248z" fill="#f7faf8" opacity=".84"/>
  <path d="M181 512h932l-35 58H149l32-58z" fill="#0f141b"/>
  <circle cx="355" cy="568" r="86" fill="#111827"/>
  <circle cx="355" cy="568" r="39" fill="#e9efef"/>
  <circle cx="903" cy="568" r="86" fill="#111827"/>
  <circle cx="903" cy="568" r="39" fill="#e9efef"/>
  <rect x="815" y="437" width="102" height="12" rx="6" fill="#c9984f"/>
  <text x="92" y="116" fill="#8a6435" font-family="Georgia, 'Times New Roman', serif" font-size="32" font-weight="700" letter-spacing="5">LEXUS RX</text>
  <text x="92" y="164" fill="#111827" font-family="Georgia, 'Times New Roman', serif" font-size="54" font-weight="700">2020 premium SUV</text>
  <text x="92" y="708" fill="#334155" font-family="Arial, sans-serif" font-size="26">Quiet brakes, tire comfort, and battery reserve.</text>
</svg>
